<?xml version="1.0" encoding="utf-8"?>
<!-- Generator: Adobe Illustrator 22.1.0, SVG Export Plug-In . SVG Version: 6.00 Build 0)  -->
<svg version="1.1" id="Layer_1" xmlns="http://www.w3.org/2000/svg" xmlns:xlink="http://www.w3.org/1999/xlink" x="0px" y="0px"
	 viewBox="0 0 72 72" style="enable-background:new 0 0 72 72;" xml:space="preserve">
<style type="text/css">
	.st0{fill:#FFFFFF;}
</style>
<path class="st0" d="M36,6.6c9.6,0,10.8,0,14.7,0.3c9.9,0.3,14.4,5.1,14.7,14.7c0.3,3.9,0.3,4.8,0.3,14.4s0,10.8-0.3,14.4
	c-0.3,9.6-5.1,14.4-14.7,14.7c-3.9,0.3-4.8,0.3-14.7,0.3c-9.6,0-10.8,0-14.4-0.3C11.7,64.8,7.2,60,6.9,50.4
	C6.6,46.5,6.6,45.6,6.6,36s0-10.8,0.3-14.4C7.2,12,12,7.2,21.6,6.9C25.2,6.6,26.4,6.6,36,6.6z M36,0c-9.9,0-11.1,0-14.7,0.3
	c-13.2,0.6-20.4,7.8-21,21C0,24.9,0,26.1,0,36s0,11.1,0.3,14.7c0.6,13.2,7.8,20.4,21,21C24.9,72,26.1,72,36,72s11.1,0,14.7-0.3
	c13.2-0.6,20.4-7.8,21-21C72,47.1,72,45.9,72,36s0-11.1-0.3-14.7c-0.6-13.2-7.8-20.4-21-21C47.1,0,45.9,0,36,0z M36,17.4
	c-10.2,0-18.6,8.4-18.6,18.6S25.8,54.6,36,54.6S54.6,46.2,54.6,36S46.2,17.4,36,17.4z M36,48c-6.6,0-12-5.4-12-12s5.4-12,12-12
	s12,5.4,12,12S42.6,48,36,48z M55.2,12.6c-2.4,0-4.2,1.8-4.2,4.2s1.8,4.2,4.2,4.2c2.4,0,4.2-1.8,4.2-4.2S57.6,12.6,55.2,12.6z"/>
</svg>
