<?xml version="1.0" encoding="utf-8"?>
<!-- Generator: Adobe Illustrator 22.1.0, SVG Export Plug-In . SVG Version: 6.00 Build 0)  -->
<svg version="1.1" id="Layer_1" xmlns="http://www.w3.org/2000/svg" xmlns:xlink="http://www.w3.org/1999/xlink" x="0px" y="0px"
	 viewBox="0 0 72 72" style="enable-background:new 0 0 72 72;" xml:space="preserve">
<style type="text/css">
	.st0{fill:#FFFFFF;}
</style>
<path class="st0" d="M57,0H15C6.6,0,0,6.6,0,15v42c0,8.4,6.6,15,15,15h42c8.4,0,15-6.6,15-15V15C72,6.6,65.4,0,57,0z M24,57h-9V24h9
	V57z M19.5,20.1c-3,0-5.4-2.4-5.4-5.4s2.4-5.4,5.4-5.4s5.4,2.7,5.4,5.7S22.5,20.1,19.5,20.1z M60,57h-9V40.2c0-10.2-12-9.3-12,0V57
	h-9V24h9v5.4c4.2-7.8,21-8.4,21,7.5V57z"/>
</svg>
